HIERARCHY
ROOT root
{
	OFFSET 0.000000 0.000000 0.000000
	CHANNELS 6 Xposition Yposition Zposition Zrotation Yrotation Xrotation
	JOINT lhip
	{
		OFFSET 0.058581 -0.082280 -0.017664
		CHANNELS 3 Zrotation Yrotation Xrotation
		JOINT lknee
		{
			OFFSET 0.043451 -0.386469 0.008037
			CHANNELS 3 Zrotation Yrotation Xrotation
			JOINT lankle
			{
				OFFSET -0.014790 -0.426874 -0.037428
				CHANNELS 3 Zrotation Yrotation Xrotation
				JOINT ltoe
				{
					OFFSET 0.041054 -0.060286 0.122042
					CHANNELS 3 Zrotation Yrotation Xrotation
					End Site
					{
						OFFSET 0.000000 0.000000 0.000000
					}
				}
			}
		}
	}
	JOINT rhip
	{
		OFFSET -0.060310 -0.090513 -0.013543
		CHANNELS 3 Zrotation Yrotation Xrotation
		JOINT rknee
		{
			OFFSET -0.043257 -0.383688 -0.004843
			CHANNELS 3 Zrotation Yrotation Xrotation
			JOINT rankle
			{
				OFFSET 0.019056 -0.420046 -0.034562
				CHANNELS 3 Zrotation Yrotation Xrotation
				JOINT rtoe
				{
					OFFSET -0.034840 -0.062106 0.130323
					CHANNELS 3 Zrotation Yrotation Xrotation
					End Site
					{
						OFFSET 0.000000 0.000000 0.000000
					}
				}
			}
		}
	}
	JOINT lowerback
	{
		OFFSET 0.004439 0.124404 -0.038385
		CHANNELS 3 Zrotation Yrotation Xrotation
		JOINT upperback
		{
			OFFSET 0.004488 0.137956 0.026820
			CHANNELS 3 Zrotation Yrotation Xrotation
			JOINT chest
			{
				OFFSET -0.002265 0.056032 0.002855
				CHANNELS 3 Zrotation Yrotation Xrotation
				JOINT lowerneck
				{
					OFFSET -0.013390 0.211636 -0.033468
					CHANNELS 3 Zrotation Yrotation Xrotation
					JOINT upperneck
					{
						OFFSET 0.010113 0.088937 0.050410
						CHANNELS 3 Zrotation Yrotation Xrotation
						End Site
						{
							OFFSET 0.000000 0.000000 0.000000
						}
					}
				}
				JOINT lclavicle
				{
					OFFSET 0.071702 0.114000 -0.018898
					CHANNELS 3 Zrotation Yrotation Xrotation
					JOINT lshoulder
					{
						OFFSET 0.122921 0.045205 -0.019046
						CHANNELS 3 Zrotation Yrotation Xrotation
						JOINT lelbow
						{
							OFFSET 0.255332 -0.015649 -0.022946
							CHANNELS 3 Zrotation Yrotation Xrotation
							JOINT lwrist
							{
								OFFSET 0.265709 0.012698 -0.007375
								CHANNELS 3 Zrotation Yrotation Xrotation
								End Site
								{
									OFFSET 0.000000 0.000000 0.000000
								}
							}
						}
					}
				}
				JOINT rclavicle
				{
					OFFSET -0.082954 0.112472 -0.023707
					CHANNELS 3 Zrotation Yrotation Xrotation
					JOINT rshoulder
					{
						OFFSET -0.113228 0.046853 -0.008472
						CHANNELS 3 Zrotation Yrotation Xrotation
						JOINT relbow
						{
							OFFSET -0.260127 -0.014369 -0.031269
							CHANNELS 3 Zrotation Yrotation Xrotation
							JOINT rwrist
							{
								OFFSET -0.269108 0.006794 -0.006027
								CHANNELS 3 Zrotation Yrotation Xrotation
								End Site
								{
									OFFSET 0.000000 0.000000 0.000000
								}
							}
						}
					}
				}
			}
		}
	}
}
MOTION
Frames: 16
Frame Time: 0.033333
-0.159279 0.755397 1.029916 -3.510213 -2.738613 88.468338 -3.720431 -0.272266 -2.447558 -2.533555 -1.478934 6.567359 0.843570 12.660468 -13.239909 0.000000 -0.000000 0.000000 0.863447 -1.294510 4.312936 1.204747 6.893171 3.666466 4.230189 -1.737617 -10.187541 0.000000 -0.000000 0.000000 2.526015 3.219839 6.549379 1.563371 -1.050507 -0.339963 -0.270906 1.712947 4.430704 -0.433403 2.052663 -0.558121 -1.662249 -5.729396 1.803906 -20.936291 9.999496 -4.259044 -46.498631 -4.269881 5.357737 14.757034 -34.311953 0.182698 1.255770 -6.630714 -8.549169 24.826129 -2.375634 -0.870255 57.216564 3.578958 14.339018 -16.840148 27.207611 -0.400862 3.745602 5.214771 -2.037341 
-0.156222 0.746904 1.027594 -3.767288 -1.865898 88.062068 -3.488058 0.461728 -1.669374 -1.725762 -1.716283 6.576019 3.761013 13.311052 -11.666101 0.000000 -0.000000 0.000000 1.223874 -1.822830 6.014418 1.595489 7.751728 2.494522 4.017666 -1.721396 -10.289421 0.000000 -0.000000 0.000000 2.246921 2.709148 7.168869 1.183513 -0.642333 -2.343690 0.114380 1.215824 5.498061 -0.197167 1.307997 -1.204127 -1.248822 -4.291345 3.473845 -22.393293 10.804754 -2.838740 -48.324347 -3.748896 5.157140 13.994112 -34.398968 1.901007 -0.129328 -4.325240 -7.727124 24.679275 -2.627790 -0.846611 56.276596 2.504528 14.436318 -15.278235 28.603871 -0.590234 2.952323 3.050834 -4.406294 
-0.153961 0.737292 1.024891 -4.302909 -1.008430 88.035356 -2.846259 0.662252 -1.292967 -1.694059 -2.383684 7.125478 4.622942 13.921161 -11.735603 0.000000 -0.000000 0.000000 1.847841 -1.971506 7.119049 1.464457 8.354822 1.785463 3.819913 -1.528759 -10.594818 0.000000 -0.000000 0.000000 1.661478 2.743589 6.353242 1.329447 -0.723888 -1.996214 0.165747 1.006572 5.440162 0.246467 1.197861 -0.846725 -0.760453 -3.528589 3.275911 -23.389501 11.094057 -2.196522 -50.474585 -2.743024 5.402517 13.836053 -34.378122 2.932213 -0.078725 -3.604649 -8.246398 25.652426 -3.575274 -0.374401 55.927521 1.452755 13.675953 -17.347488 31.193854 -1.459261 3.027300 2.049969 -4.362361 
-0.151104 0.724429 1.023158 -5.015298 -0.401159 87.535890 -2.299853 1.094884 -0.325684 -1.783415 -2.050490 7.814044 4.629932 13.702848 -12.510434 0.000000 -0.000000 0.000000 2.390209 -2.367286 8.042660 1.028137 8.758067 2.382270 3.959131 -0.913533 -11.482734 0.000000 -0.000000 0.000000 0.814167 3.108130 5.859915 1.102827 -0.862050 -1.717567 -0.055426 0.663912 5.417009 1.313264 1.431300 -0.695519 -0.294033 -2.905651 3.536390 -25.115233 10.896014 -1.897598 -51.767562 -2.450294 5.525574 13.363256 -33.011906 3.241159 0.636491 -3.237481 -7.827472 26.487626 -4.020906 -0.592700 55.596934 0.886424 13.337085 -17.306314 30.760303 -2.082190 2.517465 1.975339 -4.530070 
-0.149107 0.716722 1.023205 -5.441047 -0.196527 86.798644 -2.255892 1.677098 0.774819 -1.702754 -2.024762 8.015401 4.676993 13.484012 -13.145432 0.000000 -0.000000 0.000000 2.600641 -2.671824 8.306170 0.790093 8.630453 4.040987 4.184120 -0.174888 -12.499021 0.000000 -0.000000 0.000000 0.445239 3.077669 6.339216 0.596742 -0.766037 -1.812082 -0.362028 0.467162 5.204240 2.237315 1.563116 -0.648839 -0.109534 -2.582675 4.003981 -25.758326 10.788527 -1.976587 -52.513594 -2.609336 5.516372 13.098629 -31.658750 2.780898 1.001218 -3.527387 -6.512306 25.942549 -3.617706 -0.784528 55.643805 1.006059 13.230472 -14.387871 28.473274 -2.719969 2.381054 2.529110 -3.736910 
-0.145993 0.707909 1.022831 -5.955204 0.054700 86.482497 -2.411772 1.877502 1.453849 -1.553466 -2.299356 8.337146 5.240728 13.995313 -13.748264 0.000000 -0.000000 0.000000 2.914285 -2.419249 6.984934 0.896443 8.468555 7.945022 3.923471 -0.124181 -14.128328 0.000000 -0.000000 0.000000 -0.083056 2.763724 6.250824 0.269403 -0.743828 -1.874523 -0.888975 0.282345 5.207376 2.907514 1.907666 -0.712063 0.226576 -2.103403 4.409009 -26.809559 10.252887 -1.566399 -53.592903 -2.776365 5.575280 13.693244 -30.856155 1.773335 1.464816 -3.419172 -6.896309 26.046878 -3.344246 -0.686902 56.303995 0.512232 13.387904 -14.542446 27.796654 -2.649834 2.488438 2.577672 -4.376913 
-0.142750 0.700182 1.021954 -6.349440 0.173171 86.003228 -2.615597 2.002262 2.398313 -1.613046 -2.735530 8.472171 5.715427 14.808501 -14.334627 0.000000 -0.000000 0.000000 2.896897 -1.893308 5.157184 1.602223 8.067646 13.140604 3.988071 -0.572339 -15.525677 0.000000 -0.000000 0.000000 -0.732124 2.253128 6.413218 -0.203794 -0.664085 -1.663789 -1.132386 0.028697 5.182238 3.445384 2.338876 -1.082419 0.478631 -1.676182 4.834589 -27.931113 9.288702 -1.756435 -54.567425 -3.043705 5.689090 14.006986 -29.993697 0.118087 1.597016 -3.196899 -6.144371 26.420819 -2.958681 -0.109351 56.204681 0.355910 13.705013 -14.242594 28.367553 -3.133651 3.347704 2.014015 -4.090795 
-0.139188 0.692723 1.021490 -6.585719 0.226113 85.229924 -2.900984 2.370236 3.463927 -1.481129 -3.070304 8.757920 6.200668 15.088753 -14.885138 0.000000 -0.000000 0.000000 2.594564 -1.629032 2.827713 2.347385 6.773049 19.777725 4.261295 -0.064824 -16.380601 0.000000 -0.000000 0.000000 -1.391086 1.653876 7.284504 -0.401576 -0.690712 -1.589335 -1.538788 -0.303136 5.105739 3.840056 2.956037 -1.449161 0.581754 -1.117905 4.874191 -28.637409 8.247004 -1.221722 -55.759309 -3.694476 5.829402 14.592004 -30.202696 -0.453976 2.304337 -3.222792 -6.159143 26.512483 -2.180277 -0.220763 56.654888 -0.016766 13.874727 -14.223409 28.096009 -2.797057 3.380442 2.378453 -3.711939 
-0.135509 0.686103 1.021607 -6.497015 0.368076 84.368127 -3.038613 2.734096 4.674699 -1.352253 -3.574869 8.844500 6.771464 15.309347 -15.228497 0.000000 -0.000000 0.000000 2.291126 -1.392936 0.116722 2.984462 5.260453 27.032002 5.189989 0.136227 -15.515802 0.000000 -0.000000 0.000000 -1.963193 0.870663 8.430063 -0.438144 -0.827144 -1.438525 -1.820016 -0.723214 4.932056 3.872646 3.469745 -1.816822 0.652632 -0.580304 4.991075 -29.192749 6.718340 -0.605927 -56.780244 -4.380088 6.397501 14.977061 -30.740426 -0.474092 2.988619 -3.298415 -5.951403 26.748795 -1.328762 -0.234535 56.875505 -0.164995 14.058662 -14.408114 27.674842 -2.651146 3.394502 2.713801 -3.742704 
-0.131874 0.678097 1.021796 -5.810662 0.605585 83.356121 -3.048044 3.039950 6.407443 -1.356755 -4.580618 8.575324 7.277831 15.582443 -15.711715 0.000000 -0.000000 0.000000 1.845143 -0.993480 -3.576510 3.479811 2.976812 35.460921 6.844789 -1.009678 -13.680582 0.000000 -0.000000 0.000000 -2.538319 -0.291586 9.634814 -0.602409 -1.105754 -0.944510 -1.852683 -1.506860 4.764116 3.928264 4.308629 -2.638216 0.529594 0.183813 5.488744 -29.926384 4.212204 -0.327037 -57.219844 -5.689897 7.147100 14.239512 -30.604028 -1.017082 2.601983 -3.639860 -3.879773 27.316255 -0.350420 0.480746 56.832877 -0.034377 14.369490 -14.990931 28.640419 -4.298591 4.261620 2.513663 -2.753481 
-0.129583 0.671544 1.022056 -5.172925 0.907792 82.709636 -2.851418 3.350986 7.785472 -1.312786 -5.393246 8.131117 7.618648 15.631731 -15.889178 0.000000 -0.000000 0.000000 1.531998 -0.701242 -6.550940 2.858460 0.687365 40.730493 6.444188 -3.116232 -13.488719 0.000000 -0.000000 0.000000 -2.764249 -1.238500 10.507665 -0.648171 -1.307189 -0.744930 -1.870455 -2.063804 4.702858 3.889082 4.971615 -2.915407 0.358820 0.819954 5.765004 -29.963841 2.144194 0.239143 -57.371687 -6.905259 7.911410 12.975401 -31.086058 0.225899 1.939590 -3.776848 -2.815931 27.308707 0.367152 0.882468 57.673298 0.028042 14.543343 -15.943042 28.946416 -4.756238 4.898931 2.377804 -3.028025 
-0.127371 0.664447 1.022774 -4.431944 1.310651 82.190855 -2.567245 3.692992 9.179049 -1.091770 -6.195047 7.440148 7.788836 15.565876 -15.965163 0.000000 -0.000000 0.000000 1.250890 -0.512262 -9.093200 1.582014 -1.364157 43.887177 5.538319 -5.534553 -13.057978 0.000000 -0.000000 0.000000 -2.820561 -2.186263 11.187458 -0.554916 -1.503900 -0.550559 -1.821202 -2.600921 4.651233 3.773225 5.559393 -3.020374 0.191933 1.451208 6.131974 -29.850905 0.183149 0.909011 -57.169314 -8.212380 8.754561 11.207387 -32.067663 2.376906 1.217917 -4.024106 -1.793964 27.280370 0.951059 1.291033 58.338901 0.103699 14.631388 -16.647960 29.133777 -5.146741 5.343777 2.376615 -3.376740 
-0.125423 0.656930 1.023861 -3.482119 1.861878 81.825421 -2.032043 4.008445 10.468134 -0.876415 -6.939855 6.680967 7.743489 15.182421 -16.068596 0.000000 -0.000000 0.000000 1.013409 -0.373417 -11.228933 0.378952 -3.174665 44.814805 4.744283 -7.418179 -11.993756 0.000000 -0.000000 0.000000 -2.761557 -3.074832 11.862149 -0.283454 -1.801402 -0.412200 -1.618981 -3.107618 4.458707 3.473145 6.046456 -2.978664 0.264015 2.027232 6.331502 -29.560945 -1.550509 1.502860 -56.921506 -9.437493 9.708391 9.519296 -33.420018 4.919605 0.459790 -4.576506 -0.731578 27.324349 1.350957 1.674571 58.719094 0.016338 14.572188 -17.203494 29.392317 -5.435716 5.594944 2.450969 -3.558503 
-0.123513 0.648915 1.024412 -2.687202 2.306325 81.670695 -1.486418 4.325044 11.677264 -0.832847 -7.699494 5.678935 7.641774 14.824770 -16.118306 0.000000 -0.000000 0.000000 0.603855 -0.124796 -13.149399 -0.090044 -4.055836 43.808395 4.605784 -7.884503 -11.219619 0.000000 -0.000000 0.000000 -2.760610 -3.696867 12.310501 0.055505 -2.066447 -0.244000 -1.272154 -3.489205 4.251620 3.262892 6.445928 -2.978791 0.330300 2.254090 6.538763 -29.081245 -3.008112 1.921299 -56.925585 -10.722690 10.634654 8.064807 -35.072733 6.890767 0.141489 -5.045172 -0.250292 27.336984 1.544245 1.956389 58.944733 -0.160612 14.407161 -17.615212 29.652178 -5.644589 5.769737 2.524417 -3.764292 
-0.121724 0.640915 1.024063 -1.978418 2.687872 81.879526 -0.926155 4.696321 12.370516 -0.912714 -8.295821 4.885451 7.509991 14.369910 -16.454566 0.000000 -0.000000 0.000000 0.216867 0.056893 -15.083677 0.119608 -3.805864 41.119628 4.896292 -7.371416 -10.428092 0.000000 -0.000000 0.000000 -2.611480 -4.173055 12.357683 0.383254 -2.365544 -0.161518 -1.008608 -3.826193 4.208427 3.111371 6.920476 -2.942482 0.450043 2.318814 6.679913 -28.569841 -4.032209 2.000297 -56.877082 -12.036850 11.370796 6.821977 -36.559638 8.142163 0.197379 -5.487616 -0.040053 27.381493 1.481986 2.171952 59.166561 -0.143197 14.359668 -17.904909 29.714215 -5.814176 5.772691 2.532979 -3.893274 
-0.120212 0.632166 1.023303 -1.544143 3.008042 82.108406 -0.408601 5.049247 13.076449 -1.030942 -8.618330 4.167729 7.309423 13.952325 -16.881215 0.000000 -0.000000 0.000000 -0.075844 0.311050 -16.585023 0.303314 -3.022952 36.992843 5.584129 -6.751422 -10.232427 0.000000 -0.000000 0.000000 -2.389843 -4.480697 12.440760 0.691969 -2.572343 -0.142402 -0.760833 -4.004152 4.142106 3.006756 7.351365 -2.907439 0.537559 2.262479 6.777152 -28.118919 -4.674144 1.967301 -56.791436 -13.195053 11.971471 5.914079 -38.087643 9.081425 0.402879 -5.871340 -0.106320 27.483711 1.289245 2.293302 59.320235 -0.238125 14.313338 -18.185190 29.739579 -6.050777 5.724152 2.544341 -4.067909 
